<?xml version="1.0" encoding="UTF-8"?>
<svg id="Calque_1" data-name="Calque 1" xmlns="http://www.w3.org/2000/svg" viewBox="0 0 608.08 190.25">
  <defs>
    <style>
      .cls-1 {
        letter-spacing: -.08em;
      }

      .cls-2 {
        letter-spacing: -.08em;
      }

      .cls-3 {
        letter-spacing: -.08em;
      }

      .cls-4 {
        stroke-width: 0px;
      }

      .cls-4, .cls-5 {
        fill: #fff;
      }

      .cls-5 {
        font-family: AgenorNeue-Regular, 'Agenor Neue';
        font-size: 85.19px;
      }
    </style>
  </defs>
  <text class="cls-5" transform="translate(188.52 157.71)"><tspan class="cls-1" x="0" y="0">D</tspan><tspan class="cls-3" x="59.12" y="0">iasp</tspan><tspan class="cls-2" x="201.56" y="0">o</tspan><tspan class="cls-3" x="247.9" y="0">rium</tspan></text>
  <circle class="cls-4" cx="79.44" cy="113.88" r="25.1"/>
  <circle class="cls-4" cx="135.22" cy="33.78" r="15.97"/>
  <circle class="cls-4" cx="155.5" cy="7.64" r="7.64"/>
  <path class="cls-4" d="M157.06,111.73c0,26.8-13.43,50.47-33.92,64.63-4.03,2.79-8.33,5.21-12.87,7.2-9.69,4.31-20.43,6.69-31.73,6.69-10.6,0-20.7-2.1-29.92-5.91-4.51-1.85-8.82-4.12-12.87-6.75-17.01-11.06-29.46-28.54-33.92-49-1.2-5.43-1.82-11.06-1.82-16.85s.62-11.42,1.82-16.85c4.47-20.46,16.92-37.94,33.92-49.02,4.05-2.63,8.36-4.9,12.87-6.75,9.23-3.81,19.33-5.91,29.92-5.91,6.77,0,13.33.85,19.59,2.47,7.18,1.85,12.14,8.43,12.14,15.84h0c0,12.31-11.11,21.58-23.24,19.46-2.46-.43-5-.66-7.59-.66-12.03,0-22.92,4.86-30.83,12.71-7.95,7.92-12.87,18.88-12.87,30.98s4.92,23.06,12.87,30.98c7.91,7.87,18.8,12.73,30.83,12.73s22.92-4.86,30.83-12.73c7.95-7.92,12.87-18.88,12.87-30.98v-37.48c0-11.87,15.61-16.57,21.93-6.51,7.6,12.09,11.99,26.4,11.99,41.73Z"/>
</svg>